<svg xmlns="http://www.w3.org/2000/svg" fill="none" viewBox="0 0 28 27">
<path fill-rule="evenodd" clip-rule="evenodd" d="M5.74507 12.7253C6.4491 12.5845 7.13397 13.041 7.27477 13.7451C7.71689 15.9556 8.73987 17.4063 9.96388 18.2896C11.2025 19.1835 12.7361 19.56 14.2856 19.4531C17.4392 19.2356 20.3043 17.0849 20.7101 13.8388C20.7991 13.1263 21.4488 12.621 22.1613 12.7101C22.8737 12.7991 23.379 13.4488 23.29 14.1613C22.6957 18.9152 18.5609 21.7644 14.4645 22.0469C12.3889 22.1901 10.235 21.6916 8.4424 20.3979C6.63516 19.0937 5.28315 17.0444 4.72526 14.255C4.58446 13.5509 5.04104 12.8661 5.74507 12.7253Z" fill="#BE9CEB"/>
<path fill-rule="evenodd" clip-rule="evenodd" d="M14 23C19.6612 23 24 18.6108 24 13.5C24 8.38916 19.6612 4 14 4C8.33879 4 4 8.38916 4 13.5C4 18.6108 8.33879 23 14 23ZM14 27C21.732 27 28 20.9558 28 13.5C28 6.04416 21.732 0 14 0C6.26801 0 0 6.04416 0 13.5C0 20.9558 6.26801 27 14 27Z" fill="#406AF6"/>
</svg>